<svg xmlns="http://www.w3.org/2000/svg" xmlns:xlink="http://www.w3.org/1999/xlink" id="Layer_1" x="0px" y="0px" viewBox="0 0 50 50" style="enable-background:new 0 0 50 50;" xml:space="preserve"> <style type="text/css"> .st0{fill:#231428;} </style> <g> <g> <path class="st0" d="M46.63,4.42c-4.4-4.53-11.64-4.57-16.1-0.12l-30,30c-0.94,0.94,0.22,2.46,1.38,1.8l10.71-6.16 c1.09-0.62,2.24,0.7,1.47,1.69L2,47.16c-0.83,1.06,0.55,2.43,1.61,1.6l21.83-17.23c0.97-0.76,2.29,0.32,1.74,1.42l-3.49,6.98 c-0.58,1.17,0.92,2.25,1.84,1.33l21.23-21.23C50.87,15.65,50.81,8.72,46.63,4.42z M36.75,13.13c-0.58,1.6-1.9,2.6-2.94,2.22 c-1.04-0.38-1.41-1.99-0.83-3.59c0.58-1.6,1.9-2.6,2.94-2.22C36.96,9.92,37.33,11.53,36.75,13.13z M43.36,13.13 c-0.58,1.6-1.9,2.6-2.94,2.22c-1.04-0.38-1.41-1.99-0.83-3.59c0.58-1.6,1.9-2.6,2.94-2.22C43.57,9.92,43.95,11.53,43.36,13.13z"></path> </g> </g> </svg>