<svg width="21" height="20" viewBox="0 0 21 20" fill="none" xmlns="http://www.w3.org/2000/svg">
<path d="M10.5 0C4.97728 0 0.500122 4.47722 0.500122 9.9999C0.500122 15.5224 4.97721 20 10.4998 20C16.0224 20 20.5 15.5224 20.5 9.9999C20.5 4.47722 16.0225 0 10.5 0ZM14.2722 13.8113C13.8729 14.2102 13.2261 14.2102 12.8272 13.8113L10.5518 11.5358L8.17271 13.9149C7.77365 14.3138 7.12679 14.3138 6.72793 13.9149C6.32866 13.5155 6.32866 12.8688 6.72793 12.4695L9.10677 10.0907L6.89186 7.87592C6.49293 7.47653 6.49293 6.82986 6.89186 6.43074C7.29092 6.03167 7.93791 6.03167 8.33704 6.43074L10.5518 8.64551L12.6632 6.534C13.0623 6.13507 13.7095 6.13494 14.1082 6.534C14.5074 6.9334 14.5074 7.58046 14.1082 7.97919L11.997 10.0906L14.2723 12.366C14.6712 12.7649 14.6714 13.4121 14.2722 13.8113Z" fill="#EA5454"/>
</svg>
