<svg width="66" height="66" viewBox="0 0 66 66" fill="none" xmlns="http://www.w3.org/2000/svg">
<g clip-path="url(#clip0_771_5439)">
<path d="M33.0006 66C51.226 66 66.0006 51.2254 66.0006 33C66.0006 14.7746 51.226 0 33.0006 0C14.7752 0 0.000610352 14.7746 0.000610352 33C0.000610352 51.2254 14.7752 66 33.0006 66Z" fill="#0052FF"/>
<path d="M33.2778 23.3211C37.163 23.3211 40.2451 25.7174 41.4156 29.2811H49.2428C47.8248 21.6621 41.5387 16.5 33.3403 16.5C24.03 16.5 16.7584 23.5673 16.7584 33.0316C16.7584 42.4959 23.8483 49.5 33.3403 49.5C41.355 49.5 47.7662 44.3379 49.1854 36.6558H41.415C40.3051 40.22 37.2255 42.6789 33.3377 42.6789C27.9733 42.6789 24.2137 38.561 24.2137 33.0316C24.2163 27.439 27.9153 23.3211 33.2778 23.3211Z" fill="white"/>
</g>
<defs>
<clipPath id="clip0_771_5439">
<rect width="66" height="66" fill="white" transform="translate(0.000610352)"/>
</clipPath>
</defs>
</svg>
