<svg width="15" height="15" viewBox="0 0 15 15" fill="none" xmlns="http://www.w3.org/2000/svg">
<path d="M13.125 0L6.25 0C5.75272 0 5.27581 0.197544 4.92417 0.549175C4.57254 0.900805 4.375 1.37772 4.375 1.875V5C4.375 5.16576 4.44085 5.32473 4.55806 5.44194C4.67527 5.55915 4.83424 5.625 5 5.625C5.16576 5.625 5.32473 5.55915 5.44194 5.44194C5.55915 5.32473 5.625 5.16576 5.625 5V1.875C5.625 1.70924 5.69085 1.55027 5.80806 1.43306C5.92527 1.31585 6.08424 1.25 6.25 1.25H13.125C13.2908 1.25 13.4497 1.31585 13.5669 1.43306C13.6842 1.55027 13.75 1.70924 13.75 1.875V13.125C13.75 13.2908 13.6842 13.4497 13.5669 13.5669C13.4497 13.6842 13.2908 13.75 13.125 13.75H6.25C6.08424 13.75 5.92527 13.6842 5.80806 13.5669C5.69085 13.4497 5.625 13.2908 5.625 13.125V10C5.625 9.83424 5.55915 9.67527 5.44194 9.55806C5.32473 9.44085 5.16576 9.375 5 9.375C4.83424 9.375 4.67527 9.44085 4.55806 9.55806C4.44085 9.67527 4.375 9.83424 4.375 10V13.125C4.375 13.6223 4.57254 14.0992 4.92417 14.4508C5.27581 14.8025 5.75272 15 6.25 15H13.125C13.6223 15 14.0992 14.8025 14.4508 14.4508C14.8025 14.0992 15 13.6223 15 13.125V1.875C15 1.37772 14.8025 0.900805 14.4508 0.549175C14.0992 0.197544 13.6223 0 13.125 0V0Z" fill="white"/>
<path d="M0.625 8.12513H8.49125L7.68313 8.93326C7.62343 8.99091 7.57582 9.05988 7.54306 9.13613C7.51031 9.21238 7.49306 9.29439 7.49234 9.37738C7.49162 9.46037 7.50744 9.54267 7.53886 9.61948C7.57029 9.69629 7.6167 9.76607 7.67538 9.82475C7.73406 9.88344 7.80384 9.92984 7.88065 9.96127C7.95746 9.9927 8.03976 10.0085 8.12275 10.0078C8.20574 10.0071 8.28775 9.98983 8.364 9.95707C8.44026 9.92431 8.50922 9.8767 8.56687 9.81701L10.4419 7.94201C10.5567 7.82355 10.6208 7.66508 10.6208 7.50013C10.6208 7.33519 10.5567 7.17672 10.4419 7.05826L8.56687 5.18326C8.449 5.06941 8.29112 5.00641 8.12725 5.00784C7.96338 5.00926 7.80662 5.07499 7.69074 5.19087C7.57486 5.30675 7.50913 5.46351 7.5077 5.62738C7.50628 5.79125 7.56928 5.94913 7.68313 6.06701L8.49125 6.87513H0.625C0.45924 6.87513 0.300269 6.94098 0.183058 7.05819C0.065848 7.1754 0 7.33437 0 7.50013C0 7.66589 0.065848 7.82486 0.183058 7.94207C0.300269 8.05928 0.45924 8.12513 0.625 8.12513Z" fill="white"/>
</svg>
