<svg width="46" height="46" viewBox="0 0 46 46" fill="none" xmlns="http://www.w3.org/2000/svg">
<circle cx="23" cy="23" r="23" fill="#3D3D3D"/>
<g clip-path="url(#clip0_1402_872)">
<path d="M30.0852 16.4919C28.7596 15.8835 27.3607 15.4493 25.9235 15.2001C25.9105 15.1979 25.8971 15.1998 25.8852 15.2055C25.8733 15.2112 25.8635 15.2205 25.8571 15.2321C25.6769 15.5515 25.4776 15.9693 25.3383 16.2964C23.7891 16.0613 22.2134 16.0613 20.6642 16.2964C20.5088 15.932 20.3331 15.5767 20.1377 15.2321C20.1312 15.2206 20.1213 15.2115 20.1095 15.2058C20.0976 15.2001 20.0843 15.1981 20.0713 15.2001C18.6338 15.448 17.2346 15.8824 15.9096 16.4919C15.8982 16.4963 15.8888 16.5044 15.8827 16.5149C13.2326 20.4748 12.5056 24.3375 12.8621 28.1517C12.8634 28.1696 12.8749 28.1874 12.8889 28.1989C14.4321 29.3421 16.1582 30.2148 17.9936 30.7801C18.0066 30.7841 18.0205 30.784 18.0334 30.7796C18.0463 30.7753 18.0574 30.7669 18.0652 30.7558C18.4587 30.2191 18.8089 29.6531 19.1104 29.0576C19.1167 29.0453 19.1188 29.0314 19.1165 29.0178C19.1142 29.0042 19.1076 28.9917 19.0976 28.9822C19.091 28.976 19.0832 28.9712 19.0746 28.9682C18.5241 28.7566 17.9909 28.5024 17.48 28.2079C17.4657 28.1998 17.4551 28.1865 17.4503 28.1708C17.4456 28.1551 17.447 28.1382 17.4544 28.1236C17.4588 28.114 17.4653 28.1057 17.4736 28.0993C17.5809 28.0188 17.6882 27.9344 17.7905 27.8501C17.7995 27.8428 17.8103 27.8382 17.8218 27.8366C17.8333 27.835 17.845 27.8366 17.8556 27.8412C21.2021 29.3694 24.8246 29.3694 28.1302 27.8412C28.1413 27.8364 28.1534 27.8347 28.1653 27.8363C28.1773 27.8378 28.1885 27.8426 28.198 27.8501C28.3002 27.9344 28.4075 28.0188 28.5149 28.0993C28.5236 28.1056 28.5305 28.114 28.5352 28.1238C28.5398 28.1335 28.542 28.1442 28.5415 28.155C28.541 28.1657 28.5378 28.1762 28.5323 28.1854C28.5267 28.1947 28.519 28.2024 28.5097 28.2079C27.9999 28.5051 27.4661 28.759 26.9138 28.9669C26.905 28.9701 26.897 28.9752 26.8904 28.9818C26.8837 28.9884 26.8787 28.9964 26.8755 29.0052C26.8725 29.0138 26.8713 29.0228 26.872 29.0318C26.8726 29.0408 26.8751 29.0496 26.8793 29.0576C27.186 29.6518 27.5374 30.2191 27.9232 30.7558C27.931 30.7669 27.9422 30.7753 27.955 30.7796C27.9679 30.784 27.9818 30.7841 27.9948 30.7801C29.8333 30.2166 31.5622 29.3437 33.1072 28.1989C33.1149 28.1936 33.1214 28.1866 33.126 28.1784C33.1306 28.1702 33.1334 28.1611 33.134 28.1517C33.5608 23.7421 32.4197 19.9113 30.1108 16.5162C30.1085 16.5106 30.105 16.5056 30.1006 16.5014C30.0962 16.4972 30.091 16.494 30.0852 16.4919V16.4919ZM19.61 25.8287C18.6019 25.8287 17.7726 24.9036 17.7726 23.7689C17.7726 22.6329 18.5865 21.7078 19.61 21.7078C20.6412 21.7078 21.4628 22.6406 21.4475 23.7689C21.4475 24.9036 20.6335 25.8287 19.61 25.8287ZM26.4027 25.8287C25.3958 25.8287 24.5652 24.9036 24.5652 23.7689C24.5652 22.6329 25.3792 21.7078 26.4027 21.7078C27.4339 21.7078 28.2567 22.6406 28.2401 23.7689C28.2401 24.9036 27.4339 25.8287 26.4027 25.8287Z" fill="white"/>
</g>
<defs>
<clipPath id="clip0_1402_872">
<rect width="20.4444" height="20.4444" fill="white" transform="translate(12.7778 12.7773)"/>
</clipPath>
</defs>
</svg>
