<svg width="46" height="46" viewBox="0 0 46 46" fill="none" xmlns="http://www.w3.org/2000/svg">
<circle cx="23" cy="23" r="23" fill="#BAFF18"/>
<g clip-path="url(#clip0_924_7614)">
<path d="M30.0853 16.4919C28.7596 15.8835 27.3608 15.4493 25.9236 15.2001C25.9106 15.1979 25.8972 15.1998 25.8853 15.2055C25.8734 15.2112 25.8636 15.2205 25.8571 15.2321C25.677 15.5515 25.4776 15.9693 25.3384 16.2964C23.7892 16.0613 22.2134 16.0613 20.6642 16.2964C20.5089 15.932 20.3331 15.5767 20.1378 15.2321C20.1312 15.2206 20.1214 15.2115 20.1095 15.2058C20.0977 15.2001 20.0844 15.1981 20.0714 15.2001C18.6339 15.448 17.2347 15.8824 15.9096 16.4919C15.8983 16.4963 15.8888 16.5044 15.8828 16.5149C13.2327 20.4748 12.5056 24.3375 12.8621 28.1517C12.8634 28.1695 12.8749 28.1874 12.889 28.1989C14.4322 29.3421 16.1583 30.2148 17.9937 30.7801C18.0067 30.7841 18.0206 30.784 18.0334 30.7796C18.0463 30.7753 18.0575 30.7669 18.0652 30.7558C18.4588 30.2191 18.8089 29.6531 19.1105 29.0576C19.1168 29.0453 19.1189 29.0314 19.1166 29.0178C19.1143 29.0042 19.1077 28.9917 19.0977 28.9822C19.0911 28.976 19.0833 28.9712 19.0747 28.9682C18.5242 28.7566 17.991 28.5024 17.48 28.2079C17.4658 28.1998 17.4551 28.1865 17.4504 28.1708C17.4456 28.1551 17.4471 28.1382 17.4545 28.1236C17.4588 28.114 17.4654 28.1057 17.4736 28.0993C17.581 28.0188 17.6883 27.9344 17.7905 27.8501C17.7996 27.8428 17.8104 27.8382 17.8219 27.8366C17.8333 27.835 17.845 27.8366 17.8557 27.8412C21.2022 29.3694 24.8247 29.3694 28.1303 27.8412C28.1413 27.8364 28.1535 27.8347 28.1654 27.8363C28.1773 27.8378 28.1886 27.8426 28.198 27.8501C28.3002 27.9344 28.4076 28.0188 28.5149 28.0993C28.5236 28.1056 28.5306 28.114 28.5352 28.1238C28.5399 28.1335 28.5421 28.1442 28.5416 28.155C28.5411 28.1657 28.5379 28.1762 28.5323 28.1854C28.5268 28.1947 28.5191 28.2024 28.5098 28.2079C28 28.5051 27.4661 28.759 26.9139 28.9669C26.905 28.9701 26.897 28.9752 26.8904 28.9818C26.8838 28.9884 26.8787 28.9964 26.8755 29.0052C26.8726 29.0138 26.8714 29.0228 26.872 29.0318C26.8727 29.0408 26.8752 29.0496 26.8794 29.0576C27.186 29.6518 27.5374 30.2191 27.9233 30.7558C27.9311 30.7669 27.9422 30.7753 27.9551 30.7796C27.968 30.784 27.9819 30.7841 27.9949 30.7801C29.8333 30.2166 31.5623 29.3437 33.1072 28.1989C33.115 28.1936 33.1214 28.1866 33.1261 28.1784C33.1307 28.1702 33.1334 28.1611 33.1341 28.1517C33.5609 23.7421 32.4198 19.9113 30.1109 16.5162C30.1085 16.5106 30.1051 16.5056 30.1007 16.5014C30.0963 16.4972 30.091 16.494 30.0853 16.4919ZM19.6101 25.8287C18.6019 25.8287 17.7726 24.9036 17.7726 23.7689C17.7726 22.6329 18.5866 21.7078 19.6101 21.7078C20.6412 21.7078 21.4629 22.6406 21.4475 23.7689C21.4475 24.9036 20.6336 25.8287 19.6101 25.8287ZM26.4027 25.8287C25.3959 25.8287 24.5653 24.9036 24.5653 23.7689C24.5653 22.6329 25.3792 21.7078 26.4027 21.7078C27.4339 21.7078 28.2568 22.6406 28.2402 23.7689C28.2402 24.9036 27.4339 25.8287 26.4027 25.8287Z" fill="black"/>
</g>
<defs>
<clipPath id="clip0_924_7614">
<rect width="20.4444" height="20.4444" fill="white" transform="translate(12.7778 12.7773)"/>
</clipPath>
</defs>
</svg>
