<svg width="10" height="7" viewBox="0 0 10 7" fill="none" xmlns="http://www.w3.org/2000/svg">
<path d="M0.226975 0.96959C0.367621 0.828987 0.558352 0.75 0.757225 0.75C0.956098 0.75 1.14683 0.828987 1.28748 0.96959L4.99998 4.68209L8.71247 0.96959C8.85393 0.832971 9.04338 0.757375 9.24003 0.759084C9.43667 0.760793 9.62478 0.83967 9.76384 0.978726C9.9029 1.11778 9.98177 1.30589 9.98348 1.50254C9.98519 1.69919 9.90959 1.88864 9.77297 2.03009L5.53022 6.27284C5.38958 6.41344 5.19885 6.49243 4.99998 6.49243C4.8011 6.49243 4.61037 6.41344 4.46973 6.27284L0.226975 2.03009C0.0863718 1.88944 0.00738525 1.69871 0.00738525 1.49984C0.00738525 1.30097 0.0863718 1.11024 0.226975 0.96959Z" fill="white"/>
</svg>
