<svg width="317" height="23" viewBox="0 0 317 23" fill="none" xmlns="http://www.w3.org/2000/svg">
<path d="M0.550537 3.25906C0.550537 1.1895 1.63264 -0.261719 4.7496 -0.261719C8.94867 -0.261719 13.5831 2.17696 18.3059 6.87133H13.337C11.0529 4.67873 8.33348 3.35055 6.26392 3.35055C5.3995 3.35055 5.02723 3.78276 5.02723 4.4011C5.02723 9.03238 16.0218 18.9448 21.5175 18.9448C23.5239 18.9448 23.9877 17.216 20.7445 14.4366H14.2929V10.9505H22.385L30.8463 19.4433L33.2849 21.8536H28.7767L26.1834 19.2603C26.092 21.0207 24.8553 22.3489 22.1674 22.3489C13.2424 22.3457 0.550537 10.5782 0.550537 3.25906Z" fill="white"/>
<path d="M40.9417 12.371H33.5625L43.0428 21.8512H37.7616L16.1448 0.234375H21.4259L29.9187 8.72715H37.2978L28.8051 0.234375H34.0547L55.6715 21.8512H50.4219L40.9417 12.371Z" fill="white"/>
<path d="M45.6646 3.59978C45.6646 0.697347 48.0748 -0.261719 50.5735 -0.261719C59.4069 -0.261719 71.4173 12.0894 71.4173 18.4527C71.4173 21.3867 69.0071 22.3426 66.5084 22.3426C57.6781 22.3457 45.6646 9.9599 45.6646 3.59978ZM65.338 18.7303C66.3255 18.7303 66.9438 18.3296 66.9438 17.4936C66.9438 14.0643 56.7853 3.35055 51.7502 3.35055C50.7312 3.35055 50.1128 3.75121 50.1128 4.61563C50.1128 7.98498 60.2714 18.7303 65.338 18.7303Z" fill="white"/>
<path d="M76.0832 16.0443H80.9006C82.2288 18.0508 84.5444 18.9468 86.3364 18.9468C87.7876 18.9468 88.4375 18.2369 88.4375 17.2179C88.4375 15.5206 86.8632 13.8517 82.478 13.0788L77.1653 12.1229C70.556 10.9178 66.5115 7.67461 66.5115 4.15698C66.5115 1.56372 68.4864 -0.259766 72.2564 -0.259766C76.0548 -0.259766 79.298 1.46908 82.3234 5.82273H77.506C76.0233 3.81626 74.326 3.13482 72.8432 3.13482C71.4835 3.13482 70.8367 3.78471 70.8367 4.64913C70.8367 6.19184 73.2754 7.64306 77.0738 8.29295L82.0458 9.15737C88.6552 10.2994 92.7627 14.0063 92.7627 17.8647C92.7627 20.521 90.7563 22.3414 86.8948 22.3414C82.6894 22.3445 78.831 20.1803 76.0832 16.0443Z" fill="white"/>
<path d="M88.4627 3.87819H81.6704V0.234375H98.2237V3.87819H93.7471L111.72 21.8512H106.439L88.4627 3.87819Z" fill="white"/>
<path d="M99.4575 0.234375H108.72C115.667 0.234375 120.857 3.96968 120.857 7.21284C120.857 7.95422 120.671 8.50947 120.361 8.97323C126.166 9.77771 131.233 13.4815 131.233 17.7121C131.233 20.1823 129.349 21.8512 126.384 21.8512H121.071L99.4575 0.234375ZM113.077 8.91328H115.115C116.535 8.91328 117.121 8.35804 117.121 7.43052C117.121 5.51554 114.001 3.7867 110.297 3.7867H107.95L113.077 8.91328ZM122.216 18.0528H124.996C125.983 18.0528 126.538 17.589 126.538 16.7877C126.538 14.3774 122.216 12.188 118.509 12.188H116.348L122.216 18.0528Z" fill="white"/>
<path d="M124.346 0.234375H129.996L159.765 21.8512H153.837L145.931 16.0463H138.735L142.442 21.8512H137.842L124.346 0.234375ZM136.482 12.5256H141.145L132.283 6.01085L136.482 12.5256Z" fill="white"/>
<path d="M140.99 0.234375H146.272L164.245 18.2074H174.126V21.8512H162.607L140.99 0.234375Z" fill="white"/>
<path d="M157.973 0.234375H163.254L181.227 18.2074H191.108V21.8512H179.589L157.973 0.234375Z" fill="white"/>
<path d="M187.574 0.234375H193.938L213.949 13.7591L200.421 0.234375H205.484L227.101 21.8512H220.769L200.727 8.32649L214.252 21.8512H209.188L187.574 0.234375Z" fill="white"/>
<path d="M210.396 0.234375H226.054V3.87819H219.29L224.448 9.03632H234.578V12.6801H228.123L237.294 21.8512H232.013L210.396 0.234375Z" fill="white"/>
<path d="M234.543 3.87819H227.751V0.234375H244.304V3.87819H239.828L257.801 21.8512H252.519L234.543 3.87819Z" fill="white"/>
<path d="M305.628 0.015625H264.215C262.912 0.015625 262.669 1.8675 263.925 2.20507L275.572 5.34412C276.752 5.66275 276.632 7.37582 275.421 7.52725L256.347 9.90283C255.041 10.0669 255.047 11.9629 256.353 12.1144L283.314 15.2881C284.507 15.4301 284.677 17.0927 283.538 17.4712L276.31 19.8815C275.102 20.2853 275.392 22.0678 276.664 22.0678H305.978C311.831 21.888 316.572 17.0674 316.657 11.2121C316.746 5.04441 311.774 0.015625 305.628 0.015625ZM304.616 11.7768C303.988 13.4962 302.578 14.5625 301.458 14.1555C300.341 13.7486 299.943 12.026 300.568 10.3035C301.196 8.58412 302.606 7.51779 303.726 7.92476C304.843 8.33173 305.24 10.0574 304.616 11.7768ZM311.25 11.7768C310.622 13.4962 309.212 14.5625 308.092 14.1555C306.975 13.7486 306.578 12.026 307.202 10.3035C307.83 8.58412 309.24 7.51779 310.36 7.92476C311.477 8.33173 311.875 10.0574 311.25 11.7768Z" fill="white"/>
</svg>
