<svg width="696" height="49" viewBox="0 0 696 49" fill="none" xmlns="http://www.w3.org/2000/svg">
<path d="M0.11499 7.17172C0.11499 2.6174 2.49628 -0.576172 9.35553 -0.576172C18.5961 -0.576172 28.7947 4.79042 39.1877 15.1209H28.2531C23.2267 10.2959 17.2423 7.37305 12.6879 7.37305C10.7857 7.37305 9.96647 8.32418 9.96647 9.68492C9.96647 19.8766 34.1613 41.6901 46.2552 41.6901C50.6706 41.6901 51.6912 37.8856 44.5543 31.7692H30.3567V24.0977H48.1644L66.7843 42.787L72.1509 48.0911H62.23L56.5232 42.3843C56.3219 46.2583 53.6004 49.1811 47.6853 49.1811C28.0449 49.1741 0.11499 23.2784 0.11499 7.17172Z" fill="black"/>
<path d="M89.0006 27.2217H72.762L93.6243 48.084H82.0025L34.4321 0.513672H46.054L64.7433 19.203H80.9819L62.2926 0.513672H73.845L121.415 48.084H109.863L89.0006 27.2217Z" fill="black"/>
<path d="M99.3936 7.92151C99.3936 1.53436 104.698 -0.576172 110.196 -0.576172C129.635 -0.576172 156.066 26.6039 156.066 40.607C156.066 47.0636 150.761 49.1672 145.263 49.1672C125.831 49.1742 99.3936 21.9177 99.3936 7.92151ZM142.687 41.218C144.86 41.218 146.221 40.3363 146.221 38.4965C146.221 30.95 123.866 7.37305 112.786 7.37305C110.543 7.37305 109.183 8.25475 109.183 10.157C109.183 17.5717 131.538 41.218 142.687 41.218Z" fill="black"/>
<path d="M166.334 35.3088H176.935C179.858 39.7243 184.954 41.6959 188.897 41.6959C192.09 41.6959 193.521 40.1339 193.521 37.8914C193.521 34.1563 190.056 30.4837 180.406 28.7828L168.715 26.6792C154.17 24.0271 145.27 16.8902 145.27 9.14926C145.27 3.44248 149.616 -0.570312 157.912 -0.570312C166.271 -0.570312 173.408 3.2342 180.066 12.8149H169.465C166.202 8.39946 162.467 6.89987 159.204 6.89987C156.211 6.89987 154.788 8.33004 154.788 10.2323C154.788 13.6272 160.155 16.8208 168.514 18.2509L179.455 20.1532C194 22.6664 203.039 30.8239 203.039 39.3146C203.039 45.1603 198.623 49.1661 190.126 49.1661C180.871 49.1731 172.381 44.4105 166.334 35.3088Z" fill="black"/>
<path d="M193.576 8.53232H178.629V0.513672H215.056V8.53232H205.205L244.757 48.084H233.135L193.576 8.53232Z" fill="black"/>
<path d="M217.771 0.513672H238.154C253.442 0.513672 264.862 8.73365 264.862 15.8706C264.862 17.5021 264.453 18.724 263.772 19.7445C276.547 21.5149 287.696 29.6654 287.696 38.9754C287.696 44.4114 283.552 48.084 277.026 48.084H265.334L217.771 0.513672ZM247.742 19.6126H252.227C255.351 19.6126 256.642 18.3907 256.642 16.3496C256.642 12.1355 249.776 8.33098 241.626 8.33098H236.46L247.742 19.6126ZM267.855 39.7252H273.971C276.144 39.7252 277.366 38.7046 277.366 36.9412C277.366 31.6371 267.855 26.819 259.697 26.819H254.941L267.855 39.7252Z" fill="black"/>
<path d="M272.541 0.513672H284.975L350.485 48.084H337.44L320.042 35.3097H304.206L312.363 48.084H302.241L272.541 0.513672ZM299.249 27.5618H309.51L290.008 13.2255L299.249 27.5618Z" fill="black"/>
<path d="M309.17 0.513672H320.792L360.343 40.0654H382.087V48.084H356.74L309.17 0.513672Z" fill="black"/>
<path d="M346.541 0.513672H358.163L397.715 40.0654H419.459V48.084H394.112L346.541 0.513672Z" fill="black"/>
<path d="M411.683 0.513672H425.686L469.723 30.2764L439.953 0.513672H451.096L498.667 48.084H484.733L440.627 18.3213L470.39 48.084H459.247L411.683 0.513672Z" fill="black"/>
<path d="M461.906 0.513672H496.362V8.53232H481.477L492.828 19.8834H515.12V27.902H500.916L521.098 48.084H509.476L461.906 0.513672Z" fill="black"/>
<path d="M515.044 8.53232H500.097V0.513672H536.524V8.53232H526.673L566.224 48.084H554.603L515.044 8.53232Z" fill="black"/>
<path d="M671.474 0.0351562H580.339C577.472 0.0351562 576.937 4.11043 579.7 4.85329L605.332 11.7611C607.929 12.4623 607.665 16.2321 604.999 16.5654L563.024 21.7931C560.15 22.1541 560.164 26.3266 563.038 26.6598L622.369 33.644C624.993 33.9565 625.368 37.6152 622.862 38.4483L606.957 43.7524C604.298 44.641 604.936 48.5636 607.734 48.5636H672.244C685.123 48.1679 695.557 37.5596 695.745 24.6743C695.939 11.1016 684.998 0.0351562 671.474 0.0351562ZM669.245 25.917C667.864 29.7007 664.76 32.0473 662.296 31.1517C659.838 30.2561 658.963 26.4654 660.338 22.6748C661.719 18.8911 664.823 16.5445 667.287 17.4401C669.745 18.3357 670.62 22.1333 669.245 25.917ZM683.845 25.917C682.464 29.7007 679.36 32.0473 676.896 31.1517C674.438 30.2561 673.563 26.4654 674.938 22.6748C676.32 18.8911 679.423 16.5445 681.888 17.4401C684.345 18.3357 685.22 22.1333 683.845 25.917Z" fill="black"/>
</svg>
