<svg width="46" height="46" viewBox="0 0 46 46" fill="none" xmlns="http://www.w3.org/2000/svg">
<circle cx="23" cy="23" r="23" fill="#BAFF18"/>
<path d="M23 20.3379C21.5345 20.3379 20.3386 21.5338 20.3386 22.9993C20.3386 24.4647 21.5345 25.6606 23 25.6606C24.4654 25.6606 25.6613 24.4647 25.6613 22.9993C25.6613 21.5338 24.4654 20.3379 23 20.3379ZM30.9821 22.9993C30.9821 21.8972 30.9921 20.8051 30.9302 19.705C30.8683 18.4272 30.5768 17.2932 29.6424 16.3588C28.706 15.4224 27.574 15.133 26.2962 15.0711C25.1941 15.0092 24.102 15.0191 23.002 15.0191C21.8999 15.0191 20.8078 15.0092 19.7077 15.0711C18.4299 15.133 17.2959 15.4244 16.3615 16.3588C15.4251 17.2952 15.1356 18.4272 15.0737 19.705C15.0119 20.8071 15.0218 21.8992 15.0218 22.9993C15.0218 24.0994 15.0119 25.1935 15.0737 26.2935C15.1356 27.5713 15.4271 28.7053 16.3615 29.6397C17.2979 30.5761 18.4299 30.8656 19.7077 30.9275C20.8098 30.9894 21.9019 30.9794 23.002 30.9794C24.104 30.9794 25.1961 30.9894 26.2962 30.9275C27.574 30.8656 28.708 30.5741 29.6424 29.6397C30.5788 28.7033 30.8683 27.5713 30.9302 26.2935C30.9941 25.1935 30.9821 24.1014 30.9821 22.9993ZM23 27.0941C20.7339 27.0941 18.9051 25.2653 18.9051 22.9993C18.9051 20.7332 20.7339 18.9044 23 18.9044C25.266 18.9044 27.0948 20.7332 27.0948 22.9993C27.0948 25.2653 25.266 27.0941 23 27.0941ZM27.2625 19.693C26.7335 19.693 26.3062 19.2658 26.3062 18.7367C26.3062 18.2076 26.7335 17.7803 27.2625 17.7803C27.7916 17.7803 28.2189 18.2076 28.2189 18.7367C28.219 18.8623 28.1944 18.9867 28.1464 19.1028C28.0984 19.2189 28.028 19.3244 27.9391 19.4133C27.8503 19.5021 27.7448 19.5725 27.6287 19.6205C27.5126 19.6685 27.3882 19.6932 27.2625 19.693Z" fill="black"/>
</svg>
