<svg width="61" height="52" viewBox="0 0 61 52" fill="none" xmlns="http://www.w3.org/2000/svg">
<g clip-path="url(#clip0_771_5406)">
<path fill-rule="evenodd" clip-rule="evenodd" d="M17.4805 47.6658L25.4114 49.6779V47.0468L26.0588 46.4277H30.5906V49.523V51.6896H25.7351L19.7464 49.2134L17.4805 47.6658Z" fill="#CDBDB2"/>
<path fill-rule="evenodd" clip-rule="evenodd" d="M43.3768 47.6658L35.6079 49.6779V47.0468L34.9605 46.4277H30.4287V49.523V51.6896H35.2842L41.2726 49.2134L43.3768 47.6658Z" fill="#CDBDB2"/>
<path fill-rule="evenodd" clip-rule="evenodd" d="M26.0588 41.94L25.4114 47.047L26.2206 46.4279H34.6368L35.6079 47.047L34.9605 41.94L33.6657 41.166L27.1917 41.3209L26.0588 41.94Z" fill="#393939"/>
<path fill-rule="evenodd" clip-rule="evenodd" d="M21.6887 7.42773L25.5732 16.0944L27.3537 41.3207H33.6657L35.6079 16.0944L39.1687 7.42773H21.6887Z" fill="#F89C35"/>
<path fill-rule="evenodd" clip-rule="evenodd" d="M4.69444 26.4632L0.162598 38.9987L11.4922 38.3797H18.7754V32.9632L18.4517 21.8203L16.8332 23.0584L4.69444 26.4632Z" fill="#F89D35"/>
<path fill-rule="evenodd" clip-rule="evenodd" d="M13.2724 27.8574L26.5442 28.1669L25.0877 34.6669L18.7753 33.1193L13.2724 27.8574Z" fill="#D87C30"/>
<path fill-rule="evenodd" clip-rule="evenodd" d="M13.2724 28.0117L18.7753 32.9641V37.9165L13.2724 28.0117Z" fill="#EA8D3A"/>
<path fill-rule="evenodd" clip-rule="evenodd" d="M18.7754 33.1191L25.2494 34.6668L27.3537 41.3217L25.8969 42.0953L18.7754 38.0715V33.1191Z" fill="#F89D35"/>
<path fill-rule="evenodd" clip-rule="evenodd" d="M18.7753 38.0703L17.4805 47.6656L26.0588 41.9395L18.7753 38.0703Z" fill="#EB8F35"/>
<path fill-rule="evenodd" clip-rule="evenodd" d="M26.5442 28.166L27.3536 41.3209L24.9257 34.5887L26.5442 28.166Z" fill="#EA8E3A"/>
<path fill-rule="evenodd" clip-rule="evenodd" d="M11.3302 38.2252L18.7754 38.0703L17.4806 47.6656L11.3302 38.2252Z" fill="#D87C30"/>
<path fill-rule="evenodd" clip-rule="evenodd" d="M3.72333 51.8456L17.4806 47.6669L11.3302 38.2266L0.162598 39.0002L3.72333 51.8456Z" fill="#EB8F35"/>
<path fill-rule="evenodd" clip-rule="evenodd" d="M25.5731 16.0957L18.6136 21.6671L13.2724 27.8576L26.5442 28.322L25.5731 16.0957Z" fill="#E8821E"/>
<path fill-rule="evenodd" clip-rule="evenodd" d="M17.4805 47.6655L26.0588 41.9395L25.4114 46.8918V49.6775L19.5847 48.5941L17.4805 47.6655Z" fill="#DFCEC3"/>
<path fill-rule="evenodd" clip-rule="evenodd" d="M43.3768 47.6655L34.9605 41.9395L35.6079 46.8918V49.6775L41.4346 48.5941L43.3768 47.6655Z" fill="#DFCEC3"/>
<path fill-rule="evenodd" clip-rule="evenodd" d="M22.9835 30.9512L24.764 34.5108L18.4517 32.9632L22.9835 30.9512Z" fill="#393939"/>
<path fill-rule="evenodd" clip-rule="evenodd" d="M3.56134 0.154297L25.5731 16.0946L21.8507 7.42797L3.56134 0.154297Z" fill="#E88F35"/>
<path fill-rule="evenodd" clip-rule="evenodd" d="M3.56134 0.154297L0.64801 8.6662L2.26652 17.9519L1.13356 18.571L2.75208 19.9638L1.45727 21.0472L3.23763 22.5948L2.10467 23.5233L4.69429 26.6186L16.8331 23.0591C22.7677 18.5194 25.681 16.1979 25.5731 16.0948C25.4652 15.9916 18.128 10.6781 3.56134 0.154297Z" fill="#8E5A30"/>
<path fill-rule="evenodd" clip-rule="evenodd" d="M56.1629 26.4632L60.6947 38.9987L49.3651 38.3797H42.0819V32.9632L42.4056 21.8203L44.0241 23.0584L56.1629 26.4632Z" fill="#F89D35"/>
<path fill-rule="evenodd" clip-rule="evenodd" d="M47.5849 27.8574L34.3131 28.1669L35.7696 34.6669L42.082 33.1193L47.5849 27.8574Z" fill="#D87C30"/>
<path fill-rule="evenodd" clip-rule="evenodd" d="M47.5849 28.0117L42.082 32.9641V37.9165L47.5849 28.0117Z" fill="#EA8D3A"/>
<path fill-rule="evenodd" clip-rule="evenodd" d="M42.0819 33.1191L35.6079 34.6668L33.5036 41.3217L34.9604 42.0953L42.0819 38.0715V33.1191Z" fill="#F89D35"/>
<path fill-rule="evenodd" clip-rule="evenodd" d="M42.082 38.0703L43.3768 47.6656L34.9605 42.0941L42.082 38.0703Z" fill="#EB8F35"/>
<path fill-rule="evenodd" clip-rule="evenodd" d="M34.3131 28.166L33.5037 41.3209L35.9316 34.5887L34.3131 28.166Z" fill="#EA8E3A"/>
<path fill-rule="evenodd" clip-rule="evenodd" d="M49.5271 38.2252L42.0819 38.0703L43.3767 47.6656L49.5271 38.2252Z" fill="#D87C30"/>
<path fill-rule="evenodd" clip-rule="evenodd" d="M57.134 51.8456L43.3767 47.6669L49.5271 38.2266L60.6947 39.0002L57.134 51.8456Z" fill="#EB8F35"/>
<path fill-rule="evenodd" clip-rule="evenodd" d="M35.2842 16.0957L42.2437 21.6671L47.5849 27.8576L34.3131 28.322L35.2842 16.0957Z" fill="#E8821E"/>
<path fill-rule="evenodd" clip-rule="evenodd" d="M37.8738 30.9512L36.0933 34.5108L42.4056 32.9632L37.8738 30.9512Z" fill="#393939"/>
<path fill-rule="evenodd" clip-rule="evenodd" d="M57.296 0.154297L35.2842 16.0946L39.0066 7.42797L57.296 0.154297Z" fill="#E88F35"/>
<path fill-rule="evenodd" clip-rule="evenodd" d="M57.296 0.154297L60.2093 8.6662L58.5908 17.9519L59.7237 18.571L58.1052 19.9638L59.4 21.0472L57.6197 22.5948L58.7526 23.5233L56.163 26.6186L44.0241 23.0591C38.0896 18.5194 35.1763 16.1979 35.2842 16.0948C35.3921 15.9916 42.7293 10.6781 57.296 0.154297Z" fill="#8E5A30"/>
</g>
<defs>
<clipPath id="clip0_771_5406">
<rect width="61" height="52" fill="white" transform="translate(0.000610352)"/>
</clipPath>
</defs>
</svg>
