<svg width="36" height="31" viewBox="0 0 36 31" fill="none" xmlns="http://www.w3.org/2000/svg">
<g clip-path="url(#clip0_741_8081)">
<path fill-rule="evenodd" clip-rule="evenodd" d="M10.316 27.7299L14.9966 28.8907V27.3728L15.3786 27.0156H18.0532V28.8013V30.0513H15.1876L11.6533 28.6228L10.316 27.7299Z" fill="#CDBDB2"/>
<path fill-rule="evenodd" clip-rule="evenodd" d="M25.599 27.7299L21.0141 28.8907V27.3728L20.632 27.0156H17.9575V28.8013V30.0513H20.8231L24.3572 28.6228L25.599 27.7299Z" fill="#CDBDB2"/>
<path fill-rule="evenodd" clip-rule="evenodd" d="M15.3787 24.425L14.9966 27.3714L15.4741 27.0142H20.4411L21.0142 27.3714L20.6321 24.425L19.868 23.9785L16.0472 24.0679L15.3787 24.425Z" fill="#393939"/>
<path fill-rule="evenodd" clip-rule="evenodd" d="M12.7996 4.51562L15.092 9.51562L16.1428 24.0693H19.868L21.0142 9.51562L23.1156 4.51562H12.7996Z" fill="#F89C35"/>
<path fill-rule="evenodd" clip-rule="evenodd" d="M2.77011 15.4969L0.0955811 22.729L6.7819 22.3719H11.0802V19.2469L10.8891 12.8184L9.93394 13.5326L2.77011 15.4969Z" fill="#F89D35"/>
<path fill-rule="evenodd" clip-rule="evenodd" d="M7.83252 16.3008L15.6651 16.4794L14.8055 20.2294L11.0802 19.3365L7.83252 16.3008Z" fill="#D87C30"/>
<path fill-rule="evenodd" clip-rule="evenodd" d="M7.83252 16.3906L11.0802 19.2478V22.1049L7.83252 16.3906Z" fill="#EA8D3A"/>
<path fill-rule="evenodd" clip-rule="evenodd" d="M11.0802 19.3359L14.901 20.2288L16.1428 24.0682L15.283 24.5145L11.0802 22.1931V19.3359Z" fill="#F89D35"/>
<path fill-rule="evenodd" clip-rule="evenodd" d="M11.0802 22.1934L10.316 27.7291L15.3786 24.4256L11.0802 22.1934Z" fill="#EB8F35"/>
<path fill-rule="evenodd" clip-rule="evenodd" d="M15.665 16.4785L16.1427 24.0679L14.7098 20.1839L15.665 16.4785Z" fill="#EA8E3A"/>
<path fill-rule="evenodd" clip-rule="evenodd" d="M6.68628 22.2827L11.0801 22.1934L10.316 27.7291L6.68628 22.2827Z" fill="#D87C30"/>
<path fill-rule="evenodd" clip-rule="evenodd" d="M2.197 30.1403L10.316 27.7296L6.6863 22.2832L0.0955811 22.7296L2.197 30.1403Z" fill="#EB8F35"/>
<path fill-rule="evenodd" clip-rule="evenodd" d="M15.092 9.51562L10.9847 12.7299L7.83252 16.3013L15.6651 16.5693L15.092 9.51562Z" fill="#E8821E"/>
<path fill-rule="evenodd" clip-rule="evenodd" d="M10.316 27.7293L15.3786 24.4258L14.9966 27.2829V28.8901L11.5579 28.265L10.316 27.7293Z" fill="#DFCEC3"/>
<path fill-rule="evenodd" clip-rule="evenodd" d="M25.599 27.7293L20.632 24.4258L21.0141 27.2829V28.8901L24.4528 28.265L25.599 27.7293Z" fill="#DFCEC3"/>
<path fill-rule="evenodd" clip-rule="evenodd" d="M13.5637 18.0859L14.6145 20.1396L10.8892 19.2467L13.5637 18.0859Z" fill="#393939"/>
<path fill-rule="evenodd" clip-rule="evenodd" d="M2.10144 0.318359L15.092 9.51471L12.8952 4.51471L2.10144 0.318359Z" fill="#E88F35"/>
<path fill-rule="evenodd" clip-rule="evenodd" d="M2.10142 0.318359L0.38208 5.22907L1.33727 10.5862L0.668637 10.9434L1.62383 11.7469L0.859674 12.3719L1.91038 13.2648L1.24175 13.8005L2.77005 15.5862L9.93397 13.5326C13.4363 10.9136 15.1557 9.57431 15.092 9.51479C15.0283 9.45526 10.6981 6.38979 2.10142 0.318359Z" fill="#8E5A30"/>
<path fill-rule="evenodd" clip-rule="evenodd" d="M33.1449 15.4969L35.8195 22.729L29.1331 22.3719H24.8349V19.2469L25.0259 12.8184L25.9811 13.5326L33.1449 15.4969Z" fill="#F89D35"/>
<path fill-rule="evenodd" clip-rule="evenodd" d="M28.0825 16.3008L20.25 16.4794L21.1096 20.2294L24.8349 19.3365L28.0825 16.3008Z" fill="#D87C30"/>
<path fill-rule="evenodd" clip-rule="evenodd" d="M28.0825 16.3906L24.8349 19.2478V22.1049L28.0825 16.3906Z" fill="#EA8D3A"/>
<path fill-rule="evenodd" clip-rule="evenodd" d="M24.8348 19.3359L21.0141 20.2288L19.7723 24.0682L20.632 24.5145L24.8348 22.1931V19.3359Z" fill="#F89D35"/>
<path fill-rule="evenodd" clip-rule="evenodd" d="M24.8348 22.1934L25.599 27.7291L20.632 24.5148L24.8348 22.1934Z" fill="#EB8F35"/>
<path fill-rule="evenodd" clip-rule="evenodd" d="M20.25 16.4785L19.7723 24.0679L21.2052 20.1839L20.25 16.4785Z" fill="#EA8E3A"/>
<path fill-rule="evenodd" clip-rule="evenodd" d="M29.2288 22.2827L24.8349 22.1934L25.599 27.7291L29.2288 22.2827Z" fill="#D87C30"/>
<path fill-rule="evenodd" clip-rule="evenodd" d="M33.718 30.1403L25.599 27.7296L29.2287 22.2832L35.8195 22.7296L33.718 30.1403Z" fill="#EB8F35"/>
<path fill-rule="evenodd" clip-rule="evenodd" d="M20.8231 9.51562L24.9303 12.7299L28.0825 16.3013L20.25 16.5693L20.8231 9.51562Z" fill="#E8821E"/>
<path fill-rule="evenodd" clip-rule="evenodd" d="M22.3513 18.0859L21.3005 20.1396L25.0259 19.2467L22.3513 18.0859Z" fill="#393939"/>
<path fill-rule="evenodd" clip-rule="evenodd" d="M33.8136 0.318359L20.823 9.51471L23.0199 4.51471L33.8136 0.318359Z" fill="#E88F35"/>
<path fill-rule="evenodd" clip-rule="evenodd" d="M33.8136 0.318359L35.533 5.22907L34.5778 10.5862L35.2464 10.9434L34.2912 11.7469L35.0554 12.3719L34.0047 13.2648L34.6733 13.8005L33.145 15.5862L25.9811 13.5326C22.4787 10.9136 20.7594 9.57431 20.8231 9.51479C20.8867 9.45526 25.2169 6.38979 33.8136 0.318359Z" fill="#8E5A30"/>
</g>
<defs>
<clipPath id="clip0_741_8081">
<rect width="36" height="30" fill="white" transform="translate(0 0.228516)"/>
</clipPath>
</defs>
</svg>
