<svg width="46" height="46" viewBox="0 0 46 46" fill="none" xmlns="http://www.w3.org/2000/svg">
<circle cx="23" cy="23" r="23" fill="#3D3D3D"/>
<path d="M32.9181 16.9823C32.2068 17.2975 31.4427 17.5105 30.6394 17.6067C31.4682 17.1108 32.0883 16.3302 32.384 15.4107C31.6052 15.8732 30.753 16.1988 29.8642 16.3733C29.2665 15.7351 28.4749 15.3121 27.6122 15.17C26.7495 15.0279 25.864 15.1745 25.0932 15.5872C24.3224 15.9999 23.7094 16.6555 23.3494 17.4523C22.9893 18.2491 22.9025 19.1424 23.1022 19.9936C21.5243 19.9144 19.9807 19.5043 18.5715 18.7899C17.1624 18.0755 15.9192 17.0728 14.9227 15.8468C14.582 16.4346 14.386 17.1161 14.386 17.8419C14.3857 18.4952 14.5466 19.1386 14.8545 19.7148C15.1624 20.2911 15.6077 20.7825 16.1511 21.1453C15.5209 21.1253 14.9047 20.955 14.3537 20.6487V20.6998C14.3536 21.6162 14.6706 22.5044 15.2508 23.2136C15.8311 23.9229 16.6388 24.4096 17.537 24.5911C16.9525 24.7493 16.3396 24.7726 15.7447 24.6592C15.9982 25.4477 16.4918 26.1372 17.1566 26.6312C17.8213 27.1252 18.6239 27.3989 19.452 27.4141C18.0463 28.5176 16.3103 29.1162 14.5232 29.1136C14.2066 29.1136 13.8903 29.0952 13.5759 29.0582C15.3899 30.2245 17.5016 30.8435 19.6582 30.8411C26.9585 30.8411 30.9494 24.7947 30.9494 19.5507C30.9494 19.3803 30.9452 19.2082 30.9375 19.0379C31.7138 18.4765 32.3839 17.7813 32.9164 16.9849L32.9181 16.9823V16.9823Z" fill="white"/>
</svg>
