<svg width="46" height="46" viewBox="0 0 46 46" fill="none" xmlns="http://www.w3.org/2000/svg">
<circle cx="23" cy="23" r="23" fill="#BAFF18"/>
<path d="M32.9181 16.9833C32.2068 17.2985 31.4427 17.5115 30.6394 17.6077C31.4682 17.1118 32.0883 16.3312 32.384 15.4116C31.6052 15.8742 30.753 16.1998 29.8642 16.3742C29.2665 15.7361 28.4749 15.3131 27.6122 15.171C26.7495 15.0288 25.864 15.1755 25.0932 15.5882C24.3224 16.0009 23.7094 16.6565 23.3494 17.4533C22.9893 18.2501 22.9025 19.1434 23.1022 19.9946C21.5243 19.9154 19.9807 19.5053 18.5715 18.7909C17.1624 18.0765 15.9192 17.0737 14.9227 15.8478C14.582 16.4356 14.386 17.1171 14.386 17.8428C14.3857 18.4962 14.5466 19.1396 14.8545 19.7158C15.1624 20.2921 15.6077 20.7835 16.1511 21.1463C15.5209 21.1263 14.9047 20.956 14.3537 20.6497V20.7008C14.3536 21.6172 14.6706 22.5053 15.2508 23.2146C15.8311 23.9239 16.6388 24.4105 17.537 24.5921C16.9525 24.7503 16.3396 24.7736 15.7447 24.6602C15.9982 25.4487 16.4918 26.1382 17.1566 26.6322C17.8213 27.1262 18.6239 27.3999 19.452 27.4151C18.0463 28.5186 16.3103 29.1172 14.5232 29.1145C14.2066 29.1146 13.8903 29.0961 13.5759 29.0592C15.3899 30.2255 17.5016 30.8445 19.6582 30.8421C26.9585 30.8421 30.9494 24.7956 30.9494 19.5516C30.9494 19.3813 30.9452 19.2092 30.9375 19.0388C31.7138 18.4774 32.3839 17.7823 32.9164 16.9859L32.9181 16.9833Z" fill="black"/>
</svg>
