<svg width="20" height="12" viewBox="0 0 20 12" fill="none" xmlns="http://www.w3.org/2000/svg">
<path d="M19.5279 11.5452C19.2466 11.8264 18.8651 11.9844 18.4674 11.9844C18.0696 11.9844 17.6882 11.8264 17.4069 11.5452L9.98189 4.1202L2.55689 11.5452C2.27399 11.8184 1.89508 11.9696 1.50179 11.9662C1.10849 11.9628 0.732275 11.805 0.454163 11.5269C0.17605 11.2488 0.0182991 10.8726 0.0148811 10.4793C0.0114632 10.086 0.162655 9.7071 0.435892 9.4242L8.92139 0.938696C9.20268 0.657489 9.58415 0.499516 9.98189 0.499516C10.3796 0.499516 10.7611 0.657489 11.0424 0.938696L19.5279 9.4242C19.8091 9.70549 19.9671 10.0869 19.9671 10.4847C19.9671 10.8824 19.8091 11.2639 19.5279 11.5452Z" fill="black" fill-opacity="0.5"/>
</svg>
