<svg width="24" height="24" viewBox="0 0 24 24" fill="none" xmlns="http://www.w3.org/2000/svg">
<path d="M21.5279 18.5452C21.2466 18.8264 20.8651 18.9844 20.4674 18.9844C20.0696 18.9844 19.6882 18.8264 19.4069 18.5452L11.9819 11.1202L4.55689 18.5452C4.27399 18.8184 3.89508 18.9696 3.50179 18.9662C3.10849 18.9628 2.73227 18.805 2.45416 18.5269C2.17605 18.2488 2.0183 17.8726 2.01488 17.4793C2.01146 17.086 2.16266 16.7071 2.43589 16.4242L10.9214 7.9387C11.2027 7.65749 11.5841 7.49952 11.9819 7.49952C12.3796 7.49952 12.7611 7.65749 13.0424 7.9387L21.5279 16.4242C21.8091 16.7055 21.9671 17.0869 21.9671 17.4847C21.9671 17.8824 21.8091 18.2639 21.5279 18.5452V18.5452Z" fill="white"/>
</svg>
