<svg width="44" height="44" viewBox="0 0 44 44" fill="none" xmlns="http://www.w3.org/2000/svg">
<g filter="url(#filter0_b_1462_1192)">
<rect x="-0.00012207" width="44" height="44" rx="10" fill="#232323" fill-opacity="0.2"/>
<path d="M27.9999 18.0005H15.4999V17.5005L26.4999 16.6205V17.5005H27.9999V16.0005C27.9999 14.9005 27.1089 14.1285 26.0209 14.2835L15.9799 15.7175C14.8909 15.8735 13.9999 16.9005 13.9999 18.0005V28.0005C13.9999 28.5309 14.2106 29.0396 14.5857 29.4147C14.9607 29.7898 15.4694 30.0005 15.9999 30.0005H27.9999C28.5303 30.0005 29.039 29.7898 29.4141 29.4147C29.7892 29.0396 29.9999 28.5309 29.9999 28.0005V20.0005C29.9999 19.47 29.7892 18.9613 29.4141 18.5863C29.039 18.2112 28.5303 18.0005 27.9999 18.0005ZM26.4999 25.0065C26.3028 25.0064 26.1077 24.9675 25.9257 24.8921C25.7437 24.8166 25.5783 24.706 25.439 24.5666C25.2997 24.4273 25.1893 24.2618 25.1139 24.0797C25.0386 23.8977 24.9998 23.7025 24.9999 23.5055C24.9999 23.3084 25.0388 23.1133 25.1143 22.9313C25.1898 22.7493 25.3003 22.5839 25.4397 22.4446C25.5791 22.3053 25.7445 22.1948 25.9266 22.1195C26.1087 22.0442 26.3038 22.0054 26.5009 22.0055C26.8988 22.0056 27.2804 22.1638 27.5617 22.4453C27.8431 22.7268 28.001 23.1085 28.0009 23.5065C28.0007 23.9044 27.8425 24.286 27.561 24.5673C27.2795 24.8486 26.8978 25.0066 26.4999 25.0065Z" fill="#231428"/>
<rect x="0.499878" y="0.5" width="43" height="43" rx="9.5" stroke="#231428"/>
</g>
<defs>
<filter id="filter0_b_1462_1192" x="-5.00012" y="-5" width="54" height="54" filterUnits="userSpaceOnUse" color-interpolation-filters="sRGB">
<feFlood flood-opacity="0" result="BackgroundImageFix"/>
<feGaussianBlur in="BackgroundImageFix" stdDeviation="2.5"/>
<feComposite in2="SourceAlpha" operator="in" result="effect1_backgroundBlur_1462_1192"/>
<feBlend mode="normal" in="SourceGraphic" in2="effect1_backgroundBlur_1462_1192" result="shape"/>
</filter>
</defs>
</svg>
