<svg width="44" height="44" viewBox="0 0 44 44" fill="none" xmlns="http://www.w3.org/2000/svg">
<g filter="url(#filter0_b_1462_1102)">
<rect width="44" height="44" rx="10" fill="#232323" fill-opacity="0.2"/>
<path d="M28 18.0005H15.5V17.5005L26.5 16.6205V17.5005H28V16.0005C28 14.9005 27.109 14.1285 26.021 14.2835L15.98 15.7175C14.891 15.8735 14 16.9005 14 18.0005V28.0005C14 28.5309 14.2107 29.0396 14.5858 29.4147C14.9609 29.7898 15.4696 30.0005 16 30.0005H28C28.5304 30.0005 29.0391 29.7898 29.4142 29.4147C29.7893 29.0396 30 28.5309 30 28.0005V20.0005C30 19.47 29.7893 18.9613 29.4142 18.5863C29.0391 18.2112 28.5304 18.0005 28 18.0005ZM26.5 25.0065C26.303 25.0064 26.1078 24.9675 25.9258 24.8921C25.7438 24.8166 25.5784 24.706 25.4391 24.5666C25.2998 24.4273 25.1894 24.2618 25.114 24.0797C25.0387 23.8977 24.9999 23.7025 25 23.5055C25.0001 23.3084 25.0389 23.1133 25.1144 22.9313C25.1899 22.7493 25.3005 22.5839 25.4398 22.4446C25.5792 22.3053 25.7447 22.1948 25.9267 22.1195C26.1088 22.0442 26.304 22.0054 26.501 22.0055C26.899 22.0056 27.2806 22.1638 27.5619 22.4453C27.8432 22.7268 28.0011 23.1085 28.001 23.5065C28.0009 23.9044 27.8427 24.286 27.5612 24.5673C27.2797 24.8486 26.898 25.0066 26.5 25.0065Z" fill="#BAFF18"/>
<rect x="0.5" y="0.5" width="43" height="43" rx="9.5" stroke="#BAFF18"/>
</g>
<defs>
<filter id="filter0_b_1462_1102" x="-5" y="-5" width="54" height="54" filterUnits="userSpaceOnUse" color-interpolation-filters="sRGB">
<feFlood flood-opacity="0" result="BackgroundImageFix"/>
<feGaussianBlur in="BackgroundImageFix" stdDeviation="2.5"/>
<feComposite in2="SourceAlpha" operator="in" result="effect1_backgroundBlur_1462_1102"/>
<feBlend mode="normal" in="SourceGraphic" in2="effect1_backgroundBlur_1462_1102" result="shape"/>
</filter>
</defs>
</svg>
