<svg width="49" height="49" viewBox="0 0 49 49" fill="none" xmlns="http://www.w3.org/2000/svg">
<circle cx="24.5" cy="24.5" r="24" fill="#EC6969"/>
<path d="M23.7626 21.1769H25.978V26.7153H23.7626V21.1769ZM23.7615 27.823H25.9769V30.0384H23.7615V27.823Z" fill="white"/>
<path d="M26.8276 14.7523C26.4421 14.0268 25.6911 13.5759 24.8692 13.5759C24.0473 13.5759 23.2963 14.0268 22.9108 14.7534L14.7826 30.1093C14.6022 30.4466 14.5129 30.825 14.5233 31.2072C14.5338 31.5895 14.6438 31.9625 14.8424 32.2893C15.0381 32.6176 15.3161 32.8892 15.6488 33.0772C15.9816 33.2652 16.3577 33.3632 16.7399 33.3615H32.9986C33.7828 33.3615 34.4929 32.9605 34.8972 32.2893C35.0954 31.9623 35.2052 31.5894 35.2157 31.2072C35.2262 30.825 35.137 30.4467 34.957 30.1093L26.8276 14.7523ZM16.7399 31.1461L24.8692 15.7902L33.0041 31.1461H16.7399Z" fill="white"/>
</svg>
