<svg width="46" height="46" viewBox="0 0 46 46" fill="none" xmlns="http://www.w3.org/2000/svg">
<circle cx="23" cy="23" r="23" fill="#BAFF18"/>
<g clip-path="url(#clip0_924_7618)">
<path d="M32.7964 18.3205C32.6806 17.9075 32.4551 17.5337 32.1439 17.2386C31.8238 16.9345 31.4316 16.717 31.0041 16.6066C29.4043 16.1849 22.995 16.1849 22.995 16.1849C20.323 16.1545 17.6517 16.2882 14.9961 16.5853C14.5686 16.7038 14.1771 16.9262 13.8563 17.2327C13.5411 17.5359 13.3128 17.9099 13.1936 18.3196C12.9071 19.863 12.7679 21.43 12.7779 22.9997C12.7676 24.568 12.9065 26.1345 13.1936 27.6798C13.3103 28.0878 13.5377 28.4601 13.8538 28.7608C14.1698 29.0615 14.5634 29.2787 14.9961 29.3937C16.6172 29.8145 22.995 29.8145 22.995 29.8145C25.6704 29.845 28.3451 29.7113 31.0041 29.4141C31.4316 29.3037 31.8238 29.0862 32.1439 28.7821C32.455 28.4871 32.6803 28.1132 32.7955 27.7002C33.0895 26.1575 33.2324 24.5898 33.2223 23.0193C33.2444 21.4422 33.1017 19.8671 32.7964 18.3196V18.3205ZM20.9574 25.9164V20.0838L26.2899 23.0006L20.9574 25.9164Z" fill="black"/>
</g>
<defs>
<clipPath id="clip0_924_7618">
<rect width="20.4444" height="20.4444" fill="white" transform="translate(12.7778 12.7773)"/>
</clipPath>
</defs>
</svg>
